
      Complete name : WWE.Hall.Of.Fame.2013.04.06.HDTV.XviD-FICEK9.avi
      Format : AVI
      Format/Info : Audio Video Interleave
      File size : 585 MiB
      Duration : 56mn 9s
      Overall bit rate mode : Variable
      Overall bit rate : 1 457 Kbps
      Writing application : MEncoder SVN-r33883(20110719-gcc4.5.2)
      Writing library : MPlayer
   Video #0
      ID : 0
      Format : MPEG-4 Visual
      Format profile : Advanced Simple@L5
      Format settings, BVOP : 2
      Format settings, QPel : No
      Format settings, GMC : No warppoints
      Format settings, Matrix : Default (H.263)
      Codec ID : XVID
      Codec ID/Hint : XviD
      Duration : 56mn 9s
      Bit rate : 1 317 Kbps
      Width : 624 pixels
      Height : 352 pixels
      Display aspect ratio : 16:9
      Original display aspect ratio : 16:9
      Frame rate : 29.970 fps
      Color space : YUV
      Chroma subsampling : 4:2:0
      Bit depth : 8 bits
      Scan type : Progressive
      Compression mode : Lossy
      Bits/(Pixel*Frame) : 0.200
      Stream size : 529 MiB (90%)
      Writing library : XviD 1.2.1 (UTC 2008-12-04)
   Audio #1
      ID : 1
      Format : MPEG Audio
      Format version : Version 1
      Format profile : Layer 3
      Mode : Joint stereo
      Codec ID : 55
      Codec ID/Hint : MP3
      Duration : 56mn 9s
      Bit rate mode : Variable
      Bit rate : 125 Kbps
      Channel(s) : 2 channels
      Sampling rate : 48.0 KHz
      Compression mode : Lossy
      Stream size : 50.3 MiB (9%)
      Alignment : Aligned on interleaves
      Interleave, duration : 24 ms (0.72 video frame)
      Interleave, preload duration : 272 ms
      Writing library : LAME3.98.4
